<svg xmlns="http://www.w3.org/2000/svg" width="692" height="237" fill="none"><path fill="#FF5E00" d="m266.878 67.832-17.324 58.316h34.648l-17.324-58.316ZM329.342 183h-28.06l-9.028-29.768h-50.752L232.718 183h-28.304l48.312-162.748h28.304L329.342 183Zm4.148-53.68V75.396h26.84v53.68c0 7.483 2.603 13.827 7.808 19.032 5.368 5.205 11.712 7.808 19.032 7.808s13.583-2.603 18.788-7.808c5.368-5.205 8.052-11.549 8.052-19.032v-53.68h27.084V183c0 14.803-5.287 27.409-15.86 37.82-10.573 10.573-23.261 15.86-38.064 15.86-13.664 0-25.539-4.473-35.624-13.42s-16.023-20.089-17.812-33.428h27.572c1.627 5.856 4.799 10.655 9.516 14.396 4.717 3.741 10.167 5.612 16.348 5.612 7.645 0 14.071-2.765 19.276-8.296 5.368-5.531 7.808-12.119 7.32-19.764h.244v-25.62h-6.832c0 1.464-.163 3.009-.488 4.636-.163 1.627-.813 3.904-1.952 6.832-.976 2.765-2.359 5.205-4.148 7.32-1.789 2.115-4.636 3.985-8.54 5.612-3.741 1.627-8.133 2.44-13.176 2.44-13.339 0-24.237-5.124-32.696-15.372-8.459-10.411-12.688-23.18-12.688-38.308Zm123.906 0c0-14.965 5.206-27.653 15.616-38.064 10.574-10.573 23.262-15.86 38.064-15.86 14.966 0 27.654 5.287 38.064 15.86C559.714 101.667 565 114.355 565 129.32V183h-27.084v-53.68c0-7.483-2.684-13.827-8.052-19.032-5.205-5.205-11.468-7.808-18.788-7.808s-13.582 2.603-18.788 7.808c-5.205 5.205-7.808 11.549-7.808 19.032V183h-27.084v-53.68Zm191.796-19.032c-5.206-5.205-11.55-7.808-19.032-7.808-7.32 0-13.583 2.603-18.788 7.808-5.206 5.205-7.808 11.549-7.808 19.032 0 7.32 2.602 13.583 7.808 18.788 5.205 5.205 11.468 7.808 18.788 7.808 7.482 0 13.826-2.603 19.032-7.808 5.205-5.205 7.808-11.468 7.808-18.788 0-7.483-2.603-13.827-7.808-19.032Zm34.892 19.032V183H657v-26.84h-6.832c0 1.464-.082 3.009-.244 4.636-.163 1.627-.814 3.904-1.952 6.832a20.957 20.957 0 0 1-4.392 7.32c-1.79 2.115-4.555 3.985-8.296 5.612-3.742 1.627-8.215 2.44-13.42 2.44-13.339 0-24.238-5.124-32.696-15.372-8.459-10.411-12.688-23.18-12.688-38.308 0-14.965 5.205-27.653 15.616-38.064 10.573-10.573 23.261-15.86 38.064-15.86 14.965 0 27.653 5.287 38.064 15.86 10.573 10.411 15.86 23.099 15.86 38.064ZM43.182 28.751l18.568-.512-14.7 54.886s0 .077-.026.128v.051l-.794 3.176-11.09-41.363 8.043-16.366ZM12.217 80.666l-1.204-18.184 15.828-9.733 14.701 54.887s.026.077.052.128v.051l.896 3.15-30.273-30.273v-.026Zm-2.075 42.26L0 107.764l8.836-16.34 40.185 40.184s.077.052.103.077v.026l2.356 2.279-41.363-11.09.025.026Zm2.971 29.582-.512-18.569 54.886 14.701s.077 0 .128.026h.052l3.201.794-41.363 11.09-16.366-8.042h-.026Zm23.973 16.34 54.886-14.701s.077-.026.128-.051h.052l3.15-.897-30.274 30.273-18.184 1.204-9.732-15.828h-.026ZM92.1 195.689l-16.34-8.836 40.185-40.185s.051-.051.077-.102l.051-.052 2.279-2.356-11.09 41.363L92.1 195.664v.025Zm44.718-13.113-18.568.512 14.701-54.886s0-.077.026-.128v-.026l.794-3.176 11.089 41.364-8.042 16.366v-.026Zm30.965-51.915 1.204 18.184-15.828 9.733-14.701-54.887s-.026-.076-.052-.128v-.051l-.896-3.15 30.273 30.273v.026Zm2.075-42.26L180 103.563l-8.836 16.341-40.185-40.185s-.077-.051-.102-.077c0 0-.001-.026-.026-.051l-2.356-2.28 41.363 11.09Zm-2.971-29.556.512 18.569-54.886-14.702s-.077 0-.128-.025h-.051l-3.202-.794 41.363-11.09 16.366 8.042h.026Zm-23.973-16.34L88.028 57.206s-.077.026-.128.051h-.051l-3.15.897 30.273-30.274 18.184-1.203 9.732 15.828h.026Zm-38.674-17.98L64.055 64.71s-.05.077-.077.103l-.05.05-2.28 2.357 11.09-41.363L87.9 15.715l16.34 8.836v-.026Z"/></svg>